<svg id="Layer_1" enable-background="new 0 0 512 512" height="512" viewBox="0 0 512 512" width="512" xmlns="http://www.w3.org/2000/svg"><g><g clip-rule="evenodd" fill-rule="evenodd"><path d="m291.899 173.114c-12.169 0-22.125-9.956-22.125-22.125s9.956-22.125 22.125-22.125h21.75c0-20.374 13.77-37.533 32.511-42.676-31.414-31.031-74.583-50.188-122.227-50.188-96.06 0-173.932 77.872-173.932 173.932 0 67.929 38.942 126.764 95.719 155.397 12.472-12.796 23.188-27.348 31.753-43.256 9.117-16.932 15.798-35.401 19.566-54.923 2.234-11.576 8.071-17.149 17.602-17.149 13.786 0 21.947 2.062 41.358 2.062s27.572-2.062 41.358-2.062c9.531 0 15.368 5.574 17.602 17.149 3.768 19.522 10.449 37.991 19.566 54.923 2.674 4.967 5.558 9.801 8.64 14.492 33.675-31.719 54.698-76.721 54.698-126.633 0-12.633-1.347-24.951-3.904-36.818-34.019 0-68.04 0-102.06 0z" fill="#ff5a58"/><path d="m291.899 173.114h137.85c17.736 0 32.25-14.513 32.25-32.25 0-17.736-14.512-32.25-32.25-32.25h-32.496c-7.349-14.253-22.213-24-39.354-24-24.439 0-44.25 19.812-44.25 44.25h-21.75c-12.169 0-22.125 9.956-22.125 22.125 0 12.168 9.956 22.125 22.125 22.125z" fill="#fff"/><path d="m297.358 250.001c-13.786 0-21.947 2.062-41.358 2.062s-27.572-2.062-41.358-2.062c-9.531 0-15.368 5.574-17.602 17.149-3.768 19.522-10.449 37.991-19.566 54.923.145-.003.288-.007.435-.007 18.867 0 20.178 19.487 39.045 19.487 18.868 0 20.178-19.487 39.046-19.487s20.178 19.487 39.046 19.487c18.867 0 20.178-19.487 39.045-19.487.147 0 .291.005.435.007-9.117-16.932-15.798-35.401-19.566-54.923-2.234-11.575-8.071-17.149-17.602-17.149z" fill="#fff"/><path d="m256 322.066c-18.867 0-20.178 19.487-39.046 19.487-18.867 0-20.178-19.487-39.045-19.487-.147 0-.29.005-.435.007-32.302 59.989-95.187 100.698-167.474 100.698v53.229h492v-53.229c-72.287 0-135.172-40.709-167.474-100.698-.145-.003-.288-.007-.435-.007-18.867 0-20.178 19.487-39.045 19.487-18.868 0-20.179-19.487-39.046-19.487z" fill="#60a4ff"/></g><g><path d="m502 412.771c-59.068 0-112.657-29.141-145.847-74.991 32.925-34.09 51.712-80.371 51.712-127.849 0-8.981-.667-17.96-1.962-26.818h23.846c23.297 0 42.25-18.953 42.25-42.25s-18.953-42.25-42.25-42.25h-26.805c-10.013-14.943-26.76-24-45.045-24-2.946 0-5.834.249-8.654.703-34.156-31.829-78.499-49.316-125.311-49.316-32.481 0-64.421 8.593-92.364 24.85-4.774 2.777-6.393 8.898-3.615 13.672 2.776 4.773 8.896 6.395 13.672 3.615 24.893-14.482 53.354-22.137 82.307-22.137 38.425 0 74.979 13.225 104.298 37.473-12.127 7.954-20.896 20.625-23.659 35.39h-12.674c-17.714 0-32.125 14.411-32.125 32.125s14.411 32.125 32.125 32.125h93.766c1.453 8.834 2.2 17.824 2.2 26.818 0 40.729-15.516 80.465-42.844 110.48-9.477-16.808-16.42-35.352-20.242-55.156-4.241-21.973-19.001-25.254-27.421-25.254-6.725 0-12.122.454-17.837.935-6.592.555-13.407 1.128-23.521 1.128s-16.93-.573-23.521-1.128c-5.715-.48-11.112-.935-17.837-.935-8.42 0-23.18 3.281-27.421 25.254-6.486 33.605-21.946 63.583-43.554 87.598-51.721-29.021-83.665-83.356-83.665-142.921 0-28.956 7.653-57.415 22.134-82.301 2.777-4.773 1.159-10.896-3.614-13.673-4.773-2.779-10.896-1.159-13.673 3.614-16.255 27.937-24.847 59.874-24.847 92.359 0 64.926 33.831 124.308 88.965 157.498-32.058 28.386-73.917 45.342-118.967 45.342-5.522 0-10 4.478-10 10v53.229c0 5.522 4.478 10 10 10h492c5.522 0 10-4.478 10-10v-53.229c0-5.522-4.478-10-10-10zm-222.227-261.783c0-6.686 5.439-12.125 12.125-12.125h21.75c5.522 0 10-4.478 10-10 0-18.886 15.365-34.25 34.251-34.25 12.882 0 24.556 7.12 30.465 18.583 1.716 3.326 5.146 5.417 8.889 5.417h32.496c12.269 0 22.25 9.981 22.25 22.25s-9.981 22.25-22.25 22.25h-137.851c-6.685 0-12.125-5.439-12.125-12.125zm-72.915 118.058c1.746-9.045 5.094-9.045 7.783-9.045 5.885 0 10.647.4 16.161.864 6.677.562 14.243 1.198 25.197 1.198s18.521-.637 25.197-1.198c5.514-.464 10.276-.864 16.161-.864 2.689 0 6.037 0 7.783 9.045 3.119 16.159 8.116 31.558 14.721 45.996-5.56 2.577-9.562 6.421-12.827 9.574-4.783 4.618-7.307 6.839-12.381 6.839s-7.598-2.22-12.381-6.839c-5.441-5.256-12.895-12.453-26.274-12.453s-20.833 7.197-26.274 12.453c-4.783 4.619-7.307 6.839-12.381 6.839s-7.598-2.221-12.381-6.839c-3.265-3.154-7.267-6.997-12.827-9.574 6.607-14.438 11.605-29.837 14.723-45.996zm285.142 196.954h-472v-33.479c68.494-3.443 129.272-42.058 162.906-99.678 2.688.974 4.901 3.007 8.165 6.16 5.441 5.256 12.895 12.453 26.274 12.453s20.832-7.197 26.274-12.453c4.783-4.619 7.307-6.839 12.381-6.839s7.598 2.22 12.381 6.839c5.442 5.256 12.895 12.453 26.274 12.453s20.833-7.197 26.274-12.453c3.258-3.146 5.468-5.176 8.169-6.153 33.634 57.616 94.41 96.229 162.901 99.671v33.479z"/><path d="m100.945 96.943c5.522 0 10-4.478 10-10s-4.478-10-10-10h-.008c-5.522 0-9.996 4.478-9.996 10s4.482 10 10.004 10z"/></g></g></svg>