<svg id="Capa_1" enable-background="new 0 0 512.002 512.002" height="512" viewBox="0 0 512.002 512.002" width="512" xmlns="http://www.w3.org/2000/svg"><g><path d="m391.001 292.5h-30v60l15 30 15-30z" fill="#85453d"/><path d="m361.001 352.5h30v137h-30z" fill="#a45e43"/><path d="m474.501 262.5h-42.427v60h42.427l30-30z" fill="#c27749"/><path d="m276.487 262.5v60h45l30-30-30-30z" fill="#ff4128"/><path d="m431.06 262.5h-109.573v60h109.573l30-30z" fill="#e18f4e"/><path d="m142.501 262.5v75c24.853 0 45-20.147 45-45z" fill="#2dade3"/><path d="m157.501 292.5-15-30-45 30c0 24.853 20.147 45 45 45 8.284 0 15-20.147 15-45z" fill="#49c9ff"/><path d="m127.501 232.5 30 60h30v-30z" fill="#85453d"/><path d="m127.501 292.5h30v-30l-45-30z" fill="#fff"/><path d="m127.501 292.5h-30v-30l30-30z" fill="#a45e43"/><path d="m167.501 172.5h-30l20 90h30v-70c0-11.046-8.954-20-20-20z" fill="#ff4128"/><path d="m137.501 172.5h-20c-11.046 0-20 8.954-20 20v70h60v-70c0-11.046-8.954-20-20-20z" fill="#ff6337"/><path d="m202.501 439.5v60l-30-10v-50z" fill="#85453d"/><path d="m82.501 439.5v60l30-10v-50z" fill="#a45e43"/><path d="m142.501 7.5-45 90h90v-45c0-24.853-20.147-45-45-45z" fill="#2dade3"/><path d="m97.501 52.5v45h45v-90c-24.853 0-45 20.147-45 45z" fill="#49c9ff"/><path d="m156.593 82.047-14.092 60.453c24.853 0 45-20.147 45-45z" fill="#e18f4e"/><path d="m157.501 97.5c0-5.429-.321-10.634-.908-15.453l-41.095-20.546c-10.928 8.211-17.997 21.279-17.997 35.999 0 24.853 20.147 45 45 45 8.284 0 15-20.147 15-45z" fill="#ffa754"/><path d="m142.501 52.5 14.899 39.832c9.413 3.341 19.543 5.168 30.101 5.168 0-24.853-20.147-45-45-45z" fill="#40211d"/><path d="m142.501 52.5c-10.132 0-19.481 3.35-27.003 9.002 10.532 14.02 25.066 24.856 41.901 30.831-.855-22.418-7.197-39.833-14.898-39.833z" fill="#60312c"/><path d="m509.805 287.197-30-30c-1.407-1.407-3.314-2.197-5.304-2.197h-197c-4.143 0-7.5 3.358-7.5 7.5v60c0 4.142 3.357 7.5 7.5 7.5h76v159.5c0 4.142 3.357 7.5 7.5 7.5h30c4.143 0 7.5-3.358 7.5-7.5v-159.5h76c1.989 0 3.896-.79 5.304-2.197l30-30c2.928-2.928 2.928-7.678 0-10.606zm-224.804-17.197h30v45h-30zm98.5 212h-15v-152h15zm87.893-167h-141.393v-45h141.394l22.5 22.5z"/><path d="m285.001 177.5c0-12.407-10.094-22.5-22.5-22.5h-15c-4.143 0-7.5 3.358-7.5 7.5v22.5h-46.048c-3.274-11.528-13.889-20-26.452-20h-50c-12.465 0-23.013 8.339-26.375 19.729-42.52-3.268-76.125-38.886-76.125-82.229 0-4.142-3.357-7.5-7.5-7.5s-7.5 3.358-7.5 7.5c0 51.239 39.729 93.372 90 97.214v92.786c0 14.269 5.73 27.22 15 36.692v102.808h-22.5c-4.143 0-7.5 3.358-7.5 7.5v54.594l-9.872 3.291c-3.93 1.31-6.053 5.557-4.743 9.487 1.048 3.143 3.974 5.13 7.114 5.13.786 0 1.586-.125 2.373-.387l45-15c3.063-1.021 5.128-3.887 5.128-7.115v-149.576c6.824 3.251 14.452 5.076 22.5 5.076s15.676-1.825 22.5-5.076v149.576c0 3.228 2.065 6.094 5.128 7.115l45 15c.787.262 1.587.387 2.373.387 3.141 0 6.066-1.988 7.114-5.13 1.31-3.93-.813-8.177-4.743-9.487l-9.872-3.291v-54.594c0-4.142-3.357-7.5-7.5-7.5h-22.5v-102.808c9.27-9.472 15-22.423 15-36.692v-92.5h45v304.5c0 4.142 3.357 7.5 7.5 7.5s7.5-3.358 7.5-7.5v-304.5h7.5c12.406 0 22.5-10.093 22.5-22.5zm-167.5 2.5h50c6.893 0 12.5 5.607 12.5 12.5v62.5h-75v-62.5c0-6.893 5.607-12.5 12.5-12.5zm47.5 105v-15h15v15zm-60-15h15v15h-15zm30 0h15v15h-15zm-45 219.094v-42.094h15v37.094zm15.754-189.094h73.491c-3.484 17.096-18.635 30-36.745 30s-33.261-12.904-36.746-30zm89.246 147v42.094l-15-5v-37.094zm67.5-262h-7.5v-15h7.5c4.136 0 7.5 3.364 7.5 7.5s-3.364 7.5-7.5 7.5z"/><path d="m142.501 150c28.948 0 52.5-23.551 52.5-52.5v-45c0-28.949-23.552-52.5-52.5-52.5s-52.5 23.551-52.5 52.5v45c0 28.949 23.552 52.5 52.5 52.5zm-37.5-97.5c0-20.678 16.822-37.5 37.5-37.5s37.5 16.822 37.5 37.5v8.308c-9.537-9.745-22.821-15.808-37.5-15.808s-27.963 6.063-37.5 15.808zm74.151 37.084c-20.156-1.999-38.584-11.213-52.302-26.149 4.767-2.199 10.066-3.435 15.65-3.435 17.963 0 33.008 12.696 36.652 29.584zm-64.454-17.22c16.692 18.804 39.577 30.245 64.609 32.3-3.354 17.262-18.579 30.336-36.806 30.336-20.678 0-37.5-16.822-37.5-37.5 0-9.662 3.674-18.48 9.697-25.136z"/></g></svg>