<?xml version="1.0" encoding="UTF-8"?>
<svg xmlns="http://www.w3.org/2000/svg" width="512" height="512" viewBox="0 0 512 512"><g><g><polygon points="120 336 16 496 184 496 184 432 120 336" fill="#4e901e"/><g><path d="M196,64a28.163,28.163,0,0,0-4.007.29c0-.1.007-.193.007-.29a48,48,0,0,0-90.783-21.754A40,40,0,1,0,88,120H196a28,28,0,0,0,0-56Z" fill="#d8d7da"/><path d="M452,136a28.163,28.163,0,0,0-4.007.29c0-.1.007-.193.007-.29a48,48,0,0,0-90.783-21.754A40,40,0,1,0,344,192H452a28,28,0,0,0,0-56Z" fill="#d8d7da"/><path d="M496,496H96L262.08,230.272a40,40,0,0,1,67.84,0Z" fill="#91cc04"/></g></g><g><path d="M88,128H196a36,36,0,0,0,3.454-71.836A56,56,0,0,0,97.411,32.929,48,48,0,1,0,88,128Zm0-80a31.926,31.926,0,0,1,10.574,1.8,8,8,0,0,0,9.771-3.919A40,40,0,0,1,184,63.908c0,.113-.007.227-.007.342a8,8,0,0,0,9.133,7.959A20.339,20.339,0,0,1,196,72a20,20,0,0,1,0,40H88a32,32,0,0,1,0-64Z"/><path d="M344,200H452a36,36,0,0,0,3.454-71.836,56,56,0,0,0-102.043-23.235A48,48,0,1,0,344,200Zm0-80a31.926,31.926,0,0,1,10.574,1.8,8,8,0,0,0,9.771-3.919A40,40,0,0,1,440,135.908c0,.113-.007.227-.007.342a8,8,0,0,0,9.133,7.959A20.339,20.339,0,0,1,452,144a20,20,0,0,1,0,40H344a32,32,0,0,1,0-64Z"/><path d="M502.78,491.76,336.7,226.03a47.993,47.993,0,0,0-81.4,0L156,384.91l-33.22-53.15a7.993,7.993,0,0,0-13.56,0L80,378.51V281.39l42.79,36.68a8,8,0,0,0,10.42-12.14L80,260.32V241.08l34.88,29.07a8,8,0,1,0,10.24-12.3L80,220.25V200l19.2,14.4a8,8,0,1,0,9.6-12.8l-32-24a8.01,8.01,0,0,0-9.6,0l-32,24a8,8,0,0,0,9.6,12.8L64,200v20.25l-45.12,37.6a8,8,0,1,0,10.24,12.3L64,241.08v19.24L10.79,305.93a8,8,0,1,0,10.42,12.14L64,281.39V404.11L9.22,491.76A7.994,7.994,0,0,0,16,504H496a7.994,7.994,0,0,0,6.78-12.24ZM91.57,488H30.43L116,351.09,146.57,400ZM344,488V425.39l42.79,36.68a8,8,0,0,0,10.42-12.14L344,404.32V385.08l34.88,29.07a8,8,0,0,0,10.24-12.3L344,364.25V344l19.2,14.4a8,8,0,0,0,9.6-12.8l-32-24a8.01,8.01,0,0,0-9.6,0l-32,24a8,8,0,1,0,9.6,12.8L328,344v20.25l-45.12,37.6a8,8,0,1,0,10.24,12.3L328,385.08v19.24l-53.21,45.61a8,8,0,1,0,10.42,12.14L328,425.39V488H110.43L268.86,234.51a32.007,32.007,0,0,1,54.28,0L481.57,488Z"/></g></g></svg>
